<?xml version="1.0" encoding="iso-8859-1"?>
<!-- Generator: Adobe Illustrator 19.0.0, SVG Export Plug-In . SVG Version: 6.00 Build 0)  -->
<svg version="1.1" id="Layer_1" xmlns="http://www.w3.org/2000/svg" xmlns:xlink="http://www.w3.org/1999/xlink" x="0px" y="0px"
	 viewBox="0 0 507.136 507.136" style="enable-background:new 0 0 507.136 507.136;" xml:space="preserve">
<g transform="translate(1 1)">
	<path style="fill:#FFE100;" d="M468.461,436.035H37.528c-17.067,0-31.573-14.507-29.867-32.427l12.8-179.2
		c0.853-15.36,14.507-27.307,29.867-27.307h404.48c15.36,0,29.013,11.947,29.867,28.16l12.8,179.2
		C499.181,421.528,485.528,436.035,468.461,436.035"/>
	<path style="fill:#FFA800;" d="M485.528,225.261c-0.853-15.36-14.507-28.16-29.867-28.16h-23.893
		c15.36,0,29.013,11.947,29.867,28.16l12.8,179.2c0.853,17.067-12.8,32.427-29.867,32.427h23.04
		c17.067,0,31.573-14.507,29.867-32.427L485.528,225.261z"/>
	<path style="fill:#FFFFFF;" d="M20.461,225.261c0.853-16.213,13.653-28.16,29.867-28.16h23.04c-15.36,0-29.013,11.947-29.867,28.16
		l-12.8,178.347c-0.853,17.067,12.8,32.427,29.867,32.427h-23.04c-17.067,0-31.573-14.507-29.867-32.427L20.461,225.261z"/>
	<path style="fill:#FFE100;" d="M161.261,197.101c5.973-26.453,29.013-93.867,91.307-93.867s85.333,67.413,92.16,93.867h34.987
		c-8.533-47.787-44.373-128-127.147-128s-117.76,80.213-126.293,128H161.261z"/>
	<path style="fill:#00DA6C;" d="M354.968,299.501c0,23.893-18.773,42.667-42.667,42.667c-23.893,0-42.667-18.773-42.667-42.667
		c0-23.893,18.773-42.667,42.667-42.667C336.195,256.835,354.968,275.608,354.968,299.501"/>
	<polygon style="fill:#FDCC00;" points="124.568,436.035 158.701,436.035 158.701,197.101 124.568,197.101 	"/>
	<path d="M468.461,444.568H37.528c-11.093,0-21.333-4.267-28.16-11.947c-7.68-7.68-11.093-18.773-10.24-29.013l12.8-179.2
		c1.707-20.48,18.773-35.84,38.4-35.84h404.48c20.48,0,36.693,15.36,38.4,35.84l12.8,179.2c0.853,10.24-2.56,21.333-10.24,29.013
		C488.941,440.301,478.701,444.568,468.461,444.568z M50.328,205.635c-11.093,0-20.48,8.533-21.333,19.627l-12.8,179.2
		c0,5.973,1.707,11.947,5.973,16.213c4.267,4.267,9.387,6.827,15.36,6.827h430.08c5.973,0,11.947-2.56,15.36-6.827
		c3.413-4.267,5.973-10.24,5.973-16.213l-12.8-179.2c0-11.093-9.387-19.627-20.48-19.627H50.328z"/>
	<path d="M389.955,205.635h-52.053l-1.707-6.827c-5.973-25.6-27.307-87.04-83.627-87.04s-76.8,61.44-83.627,87.04l-0.853,6.827
		h-52.053l1.707-10.24c9.387-50.347,47.787-134.827,134.827-134.827s126.293,84.48,134.827,134.827L389.955,205.635z
		 M351.555,188.568h17.92c-11.093-45.227-46.08-110.933-116.907-110.933s-104.96,65.707-116.053,110.933h17.92
		c9.387-32.427,34.133-93.867,98.133-93.867S342.168,156.141,351.555,188.568z"/>
	<rect x="303.768" y="197.101" width="17.067" height="59.733"/>
	<path d="M312.301,350.701c-28.16,0-51.2-23.04-51.2-51.2c0-28.16,23.04-51.2,51.2-51.2c28.16,0,51.2,23.04,51.2,51.2
		C363.501,327.661,340.461,350.701,312.301,350.701z M312.301,265.368c-18.773,0-34.133,15.36-34.133,34.133
		s15.36,34.133,34.133,34.133c18.773,0,34.133-15.36,34.133-34.133S331.075,265.368,312.301,265.368z"/>
	<path d="M320.835,308.035h-17.067c-5.12,0-8.533-3.413-8.533-8.533c0-5.12,3.413-8.533,8.533-8.533h17.067
		c5.12,0,8.533,3.413,8.533,8.533C329.368,304.621,325.955,308.035,320.835,308.035z"/>
	<path d="M167.235,444.568h-51.2v-256h51.2V444.568z M133.101,427.501h17.067V205.635h-17.067V427.501z"/>
</g>
<g>
</g>
<g>
</g>
<g>
</g>
<g>
</g>
<g>
</g>
<g>
</g>
<g>
</g>
<g>
</g>
<g>
</g>
<g>
</g>
<g>
</g>
<g>
</g>
<g>
</g>
<g>
</g>
<g>
</g>
</svg>
